<svg xmlns="http://www.w3.org/2000/svg" version="1.1" xmlns:xlink="http://www.w3.org/1999/xlink" xmlns:svgjs="http://svgjs.dev/svgjs" width="100%" height="100%" viewBox="0 0 1000 600"><rect width="1000" height="600" x="0" y="0" fill="#c4d6b0"/><g><circle r="166.66666666666666" cx="315.94701639811194" cy="338.16924981260115" fill="#161b21" transform="matrix(0.8373504644916862,0,0,0.8373504644916862,0,16.833795908506318)"/><path d="M317.6066866767469 413.1692745543049L317.6066866767469 413.1692745543049Q291.8531565898312 413.1692745543049 276.6013437716911 398.23222710389376Q261.34953095355104 383.29517965348265 261.34953095355104 354.6515311901464L261.34953095355104 354.6515311901464L261.34953095355104 321.68701267889423Q261.34953095355104 293.043364215558 276.6013437716911 278.10631676514686Q291.8531565898312 263.16926931473574 317.6066866767469 263.16926931473574L317.6066866767469 263.16926931473574Q343.1312964962234 263.16926931473574 356.83789750914855 277.3909409293992Q370.5444985220737 291.6126125440627 370.5444985220737 316.3360014275018L370.5444985220737 316.3360014275018L370.5444985220737 317.3661426309784L353.43270853098966 317.3661426309784L353.43270853098966 315.70647069204387Q353.43270853098966 299.4245166704271 344.67650830143833 289.0372595353711Q335.920308071887 278.6213873668852 317.6066866767469 278.6213873668852L317.6066866767469 278.6213873668852Q299.26445024817696 278.6213873668852 288.96303821341064 289.8670955048384Q278.6616261786444 301.0841886093617 278.6616261786444 321.28640221087556L278.6616261786444 321.28640221087556L278.6616261786444 355.05214165816506Q278.6616261786444 375.25435525967896 288.96303821341064 386.4714483642023Q299.26445024817696 397.71715650215543 317.6066866767469 397.71715650215543L317.6066866767469 397.71715650215543Q335.920308071887 397.71715650215543 344.67650830143833 387.3012843336695Q353.43270853098966 376.91402719861355 353.43270853098966 360.6320731769968L353.43270853098966 360.6320731769968L353.43270853098966 357.3413443325576L370.5444985220737 357.3413443325576L370.5444985220737 360.0025424415389Q370.5444985220737 384.725931324978 356.83789750914855 398.94760293964146Q343.1312964962234 413.1692745543049 317.6066866767469 413.1692745543049Z " fill="#c4d6b0" transform="matrix(0.8373504644916862,0,0,0.8373504644916862,0,16.833795908506318)"/><path d="M622.20417126537 413.1692745543049L622.20417126537 413.1692745543049Q596.4506411784542 413.1692745543049 581.1988283603141 398.23222710389376Q565.9470155421741 383.29517965348265 565.9470155421741 354.6515311901464L565.9470155421741 354.6515311901464L565.9470155421741 321.68701267889423Q565.9470155421741 293.043364215558 581.1988283603141 278.10631676514686Q596.4506411784542 263.16926931473574 622.20417126537 263.16926931473574L622.20417126537 263.16926931473574Q647.7287810848463 263.16926931473574 661.4353820977715 277.3909409293992Q675.1419831106966 291.6126125440627 675.1419831106966 316.3360014275018L675.1419831106966 316.3360014275018L675.1419831106966 317.3661426309784L658.0301931196127 317.3661426309784L658.0301931196127 315.70647069204387Q658.0301931196127 299.4245166704271 649.2739928900613 289.0372595353711Q640.5177926605099 278.6213873668852 622.20417126537 278.6213873668852L622.20417126537 278.6213873668852Q603.8619348368 278.6213873668852 593.5605228020337 289.8670955048384Q583.2591107672674 301.0841886093617 583.2591107672674 321.28640221087556L583.2591107672674 321.28640221087556L583.2591107672674 355.05214165816506Q583.2591107672674 375.25435525967896 593.5605228020337 386.4714483642023Q603.8619348368 397.71715650215543 622.20417126537 397.71715650215543L622.20417126537 397.71715650215543Q640.5177926605099 397.71715650215543 649.2739928900613 387.3012843336695Q658.0301931196127 376.91402719861355 658.0301931196127 360.6320731769968L658.0301931196127 360.6320731769968L658.0301931196127 357.3413443325576L675.1419831106966 357.3413443325576L675.1419831106966 360.0025424415389Q675.1419831106966 384.725931324978 661.4353820977715 398.94760293964146Q647.7287810848463 413.1692745543049 622.20417126537 413.1692745543049ZM719.2377496261824 410.2791561778844L702.9557956045657 410.2791561778844L702.9557956045657 309.5256234711841L718.8085241247338 309.5256234711841L718.8085241247338 321.8873179129036L721.6986425011544 321.8873179129036Q724.3884556435655 315.30586022402514 729.9397721289673 312.2154366135953Q735.5197036477991 309.12501300316535 744.5620542116495 309.12501300316535L744.5620542116495 309.12501300316535L756.5231381853504 309.12501300316535L756.5231381853504 323.94760031985686L743.5319130081729 323.94760031985686Q732.6295852713786 323.94760031985686 725.9336674487804 330.0426024404269Q719.2377496261824 336.1089895275671 719.2377496261824 348.8712944373053L719.2377496261824 348.8712944373053L719.2377496261824 410.2791561778844ZM808.0301983591818 413.1692745543049L808.0301983591818 413.1692745543049Q797.5284810904062 413.1692745543049 788.8581259611445 409.449320208417Q780.2163858653128 405.7579808959591 775.265985081939 398.74729770563204Q770.3155842985652 391.736614515305 770.3155842985652 381.63550771454805L770.3155842985652 381.63550771454805Q770.3155842985652 371.3340956797818 775.265985081939 364.6381778571837Q780.2163858653128 357.9422600345856 788.8581259611445 354.5370710564267Q797.5284810904062 351.1604971116978 808.2305035931911 351.1604971116978L808.2305035931911 351.1604971116978L842.22516330792 351.1604971116978L842.22516330792 343.72058841992214Q842.22516330792 333.01856591713715 835.9584709867704 326.8377186962774Q829.6631636321911 320.65687147541763 817.3014691904714 320.65687147541763L817.3014691904714 320.65687147541763Q805.1400799827612 320.65687147541763 798.3583170598735 326.52295332854845Q791.5479391035557 332.3890351816792 789.0870462285839 342.28983674842686L789.0870462285839 342.28983674842686L773.8352334104437 337.33943596505304Q776.2961262854157 328.8980011032307 781.6471375368081 322.00177804662326Q787.0267638216305 315.10555499001583 795.9832692851912 310.87053004238965Q804.9397747487519 306.6355050947635 817.5017744244808 306.6355050947635L817.5017744244808 306.6355050947635Q836.8741520565275 306.6355050947635 847.5761745593123 316.65076679523077Q858.3068120955272 326.63741346226806 858.3068120955272 344.7507296233988L858.3068120955272 344.7507296233988L858.3068120955272 390.3058628438097Q858.3068120955272 396.48671006466947 864.0584338149384 396.48671006466947L864.0584338149384 396.48671006466947L873.329704646228 396.48671006466947L873.329704646228 410.2791561778844L859.1366480649946 410.2791561778844Q852.3262701086769 410.2791561778844 848.2057052947703 406.47335673170676Q844.0851404808639 402.66755728552926 844.0851404808639 396.2577897972302L844.0851404808639 396.2577897972302L844.0851404808639 395.2276485937536L841.6242476058918 395.2276485937536Q839.3350449314994 399.14790817365076 835.5292454853218 403.3829331212769Q831.7234460391443 407.5893430354731 825.1419883502658 410.393616311604Q818.5319156279575 413.1692745543049 808.0301983591818 413.1692745543049ZM809.8901755321257 399.14790817365076L809.8901755321257 399.14790817365076Q824.3121523807986 399.14790817365076 833.2686578443593 390.5920131781088Q842.22516330792 382.0647332159967 842.22516330792 366.61261516384724L842.22516330792 366.61261516384724L842.22516330792 364.3234124894547L808.8600343286491 364.3234124894547Q799.1595379959108 364.3234124894547 792.8928456747614 368.5584374370809Q786.5975383201819 372.793462384707 786.5975383201819 381.2348972465294L786.5975383201819 381.2348972465294Q786.5975383201819 389.67633210835174 793.0931509087707 394.4264276577162Q799.5887634973594 399.14790817365076 809.8901755321257 399.14790817365076ZM925.0656850874988 410.2791561778844L908.7837310658821 410.2791561778844L908.7837310658821 323.74729508584755L877.8794949615832 323.74729508584755L877.8794949615832 309.5256234711841L908.7837310658821 309.5256234711841L908.7837310658821 283.7720933842684Q908.7837310658821 275.5309637564553 913.4193664815269 270.80948324052076Q918.0550018971717 266.0593876911563 926.6967419930033 266.0593876911563L926.6967419930033 266.0593876911563L952.0496616119005 266.0593876911563L952.0496616119005 280.0807540718104L931.2465323083586 280.0807540718104Q925.0656850874988 280.0807540718104 925.0656850874988 286.2616012926702L925.0656850874988 286.2616012926702L925.0656850874988 309.5256234711841L956.771142127835 309.5256234711841L956.771142127835 323.74729508584755L925.0656850874988 323.74729508584755L925.0656850874988 410.2791561778844ZM1040.4414998768812 410.2791561778844L1013.6578285864889 410.2791561778844Q1004.9874734572272 410.2791561778844 1000.3518380415824 405.5290606285199Q995.7162026259375 400.80758011258536 995.7162026259375 392.5664504847723L995.7162026259375 392.5664504847723L995.7162026259375 323.74729508584755L965.4414972570967 323.74729508584755L965.4414972570967 309.5256234711841L995.7162026259375 309.5256234711841L995.7162026259375 273.6709865835114L1011.9981566475543 273.6709865835114L1011.9981566475543 309.5256234711841L1044.9626751588064 309.5256234711841L1044.9626751588064 323.74729508584755L1011.9981566475543 323.74729508584755L1011.9981566475543 390.07694257637047Q1011.9981566475543 396.2577897972302 1017.9786986344047 396.2577897972302L1017.9786986344047 396.2577897972302L1040.4414998768812 396.2577897972302L1040.4414998768812 410.2791561778844Z " fill="#161b21" transform="matrix(0.8373504644916862,0,0,0.8373504644916862,0,16.833795908506318)"/></g></svg>